<?xml version="1.0" encoding="utf-8"?><svg xmlns="http://www.w3.org/2000/svg" xmlns:xlink="http://www.w3.org/1999/xlink"><symbol viewBox="0 0 2806 1404" id="logo"><path d="M2494.2 1327.1c-7 7-16 13-25 17-17 8-36 9-54 3-6-1-13-4-19-8-6-3-11-7-16-12s-9-11-13-17-6-13-8-19c-4-15-4-29 0-43 2-7 4-14 8-20s8-12 13-17 10-9 16-13c6-3 13-6 19-8 18-5 37-3 54 3 19 9 35 24 43 44 8 21 8 43 0 64-4 9-10 18-18 26zm0-82c-3-8-8-15-13-20-5-6-12-10-20-14-16-6-33-6-48 0-7 4-14 8-20 14-24 25-24 64 0 87.9 12 12 28 19 44 19 8 0 17-2 24-6 8-3 15-7 20-13 18-17.9 23-44.9 13-67.9zm-201.8-342.7c-32 27-70 49-108.9 63-41 15-84.9 23-128.9 23-46 0-90.9-8-132.9-25-40-16-76.9-40-107.9-70.9-18-17-35-37-48-59-12-19-21-37-30-57 9-5 17-9 26-14 8-5 17-9 25-13 9-4 17-7 27-10 9-2 19-3 29-3 15 0 29 3 43 7s28 10 41 17c19 13 38 24 58 35s43 16 70 16c19-1 38-3 56-9 19-5 37-14 54-24 15-11 29-26 40-42 11-17 16-36 16-56 0-21-5-37-15-51-11-14-24-26-39-34-18-10-37-19-56-25-20-7-42-15-63-24-33-13-65-26-96.9-41-31-13-59-31-84.9-52-26-22-46-48-61-77.9-16-30-24-67-24-111.9 0-42 9-78.9 26-110.9 16-32 39-61 67-82.9 29-23 61-40 95.9-52 36-11 72.9-17 109.9-17 28 0 55 4 80.9 14 26 9 51 21 74.9 36 23 15 45 31 65 50 18 17 35 34 51 54l-34 27c-14 12-30 22-47 28s-33 10-51 10h-12c-4-1-9-2-13-2-11-4-22-7-32-12-9-4-19-8-28-12s-18-8-27-11c-9-2-18-4-28-4-15 0-31 2-46 6-14 4-27 9-39 17-11 7-20 16-27 27-7 10-11 23-10 36 0 16 3 30 10 41 6 11 17 20 31 29 17 10 36 18 54 24 22 8 49 17 78.9 28l31 11c34 12 67 28 97.9 46 27 17 52 38 72.9 62 20 23 36 49 47 77.9 11 31 16 64 16 96.9 1 43-9 85.9-28 124.9-18 36.8-44 69.8-75.9 96.8zm-595.6 424.7c-7 7-15 13-25 17-10 5-20 7-31 7-3 0-7-1-11-2-4 0-8-1-12-3-5-2-9-5-13-8-6-4-10-8-14-14v79.9h-19v-213.8h17c1 1 2 2 2 3v16c3-4 6-7 11-10 4-3 9-5 14-7 5-1 9-3 14-3 4-1 8-2 11-2 11 0 21 2 31 6 10 5 18 11 25 18 7 8 13 17 16 26 8 21 8 43 0 64-3 8.9-9 17.9-16 25.9zm-1-82c-3-8-7-15-12-20-6-6-12-10-19-14-7-2-16-5-24-5-9 0-18 3-26 6-9 4-17 10-24 16v73.9c3 4 6 9 11 13 3 3 7 6 12 9 4 2 9 4 14 6 4 1 8 2 13 2 8 0 17-2 24-6 7-3 13-7 19-13 5-5 9-12 12-20 5-14.9 5-31.9 0-47.9zm-178.9 82c-7 7-15 13-25 17-10 5-20 7-31 7-3 0-7-1-11-2-4 0-8-1-12-3-5-2-9-5-13-8-5-4-10-8-14-14v79.9h-19v-213.8h17c1 1 2 2 2 3v16c3-4 7-7 11-10s9-5 14-7c5-1 10-3 14-3 4-1 8-2 11-2 11 0 21 2 31 6 10 5 18 11 25 18 7 8 13 17 16 26 8 21 8 43 0 64-3 8.9-9 17.9-16 25.9zm-1-82c-3-8-7-15-12-20-6-6-12-10-19-14-7-2-16-5-24-5-9 0-18 3-26 6-9 4-17 10-24 16v73.9c3 4 7 9 11 13 3 3 7 6 12 9 4 2 9 4 14 6 4 1 8 2 13 2 8 0 17-2 24-6 7-3 13-7 19-13 5-5 9-12 12-20 5-14.9 5-31.9 0-47.9zM1333 1345v-15c-4 4-9 7-15 10-4 3-9 5-14 6-4 2-9 3-14 3-4 1-9 2-13 2h-2c-7 0-13-2-19-4s-12-5-16-9c-5-4-9-8-11-14-3-6-4-12-4-18 0-8 1-15 4-21s7-11 13-15c7-5 14-8 22-10 11-2 21-4 32-4 4 0 7 0 11 1 4 0 8 1 12 1 3 0 6 0 9 1s4 1 5 1c-1-9-2-18-5-27-2-6-6-11-10-16-3-4-7-6-12-8-10-3-20-3-30 0-5 2-9 4-13 6-2 1-4 2-5 3-3 1-5 2-7 2-5 0-9-2-12-5l-3-2c1-2 2-4 4-5 1-2 3-3 4-5 2-1 4-3 6-3 6-4 12-7 19-9 8-2 15-4 23-4 7 0 15 2 22 4 11 4 21 12 26 23 4 5 6 11 7 17 2 6 3 12 4 19 1 6 1 13 1 19v78.9h-17c0-.9-1-1.9-2-2.9zm0-66.9h-5c-2 0-6-1-9-1s-7-1-11-1h-12c-7 0-14 0-21 2-5 0-11 2-16 4s-8 5-11 9-4 9-4 15c0 3 0 7 2 9 2 4 4 6 7 8 2 3 6 5 9 6 4 1 9 2 13 2s9 0 13-1c5-1 10-2 15-4s10-3 15-6c5-2 10-5 15-7v-35zm-122.9-538.6c-20 36-46 69-74.9 97.9s-62 55-96.9 74.9c-36 22-74.9 38-115.9 49-42 12-84.9 18-127.9 18H416.8V11h377.7c85.9 0 169.9 23 243.8 66 35 22 68 47 96.9 75.9 59 60 101.9 133.9 123.9 213.8 24 84.9 24 172.9 0 257.8-11 40-28 79-49 115zm-133.9-363.8c-31-72.9-89.9-130.9-162.9-162.9-37-16-77.9-24-118.9-24H592.5v612.6h201.9c41 0 81.9-8 118.9-24 36-16 69-38 96.9-66 28-28 50-61 66-96.9 33-76.9 33-161.8 0-238.8zm-658.5 813.5c6 0 11 1 15 2 4 2 8 5 12 7 3 2 6 4 9 7l6 6-3 2c-2 2-3 3-5 4s-4 2-6 2c-1 0-2-1-4-1-1-1-2-1-3-2-2-1-3-1-4-2-2-1-3-2-4-3-2-1-5-2-8-2h-5c-4 0-9 0-12 2-3 1-6 2-8 5-2 1-4 3-4 6-2 2-2 4-2 6 0 3 1 7 2 10 2 3 5 5 8 7 3 3 6 4 9 5 4 2 8 3 11 4l2 1c6 2 11 4 17 7 5 2 10 5 14 9s8 9 11 13c2 6 4 12 4 18 0 7-2 13-4 19-3 6-7 11-12 15-6 5-11 8-17 11-7 2-15 4-22 4-9 0-18-3-26-7s-15-10-21-18c4-2 7-3 8-4 2-1 4-1 6-1h6c2 1 4 2 6 4 3 2 7 3 10 5 3 0 7 1 11 1s8-1 12-1l12-6c3-3 6-5 8-9s3-8 3-13c0-2 0-5-2-8 0-3-2-5-4-7-3-3-7-5-10-7-5-2-10-5-15-6l-3-2c-5-1-11-3-15-5-5-2-10-5-14-9-4-3-8-7-10-12-3-5-5-12-4-18 0-6 2-12 4-17s6-9 11-12c4-3 8-6 13-8 6-1 11-2 16-2h1zM327.8 1345c-1-2-1-4-1-7v-10c-3 4-7 8-12 11-4 2-9 5-14 7-4 1-9 3-14 3-5 1-10 2-14 2-8 0-16-2-23-5s-13-8-18-14-9-14-11-22c-2-10-4-19-4-29v-90.9h19v90.9c0 16 4 29 10 37 6 9 16 14 29 14 6 0 13-2 20-3 6-2 11-5 17-8 4-3 8-7 11-12 2-4 4-9 4-14v-104.9h19V1348h-17c0-1-1-2-1-3zM11 303.8h175.9v675.5H11V303.8zm124.9 833.4c15 5 26 16 32 30 3 7 5 15 5 23 0 4 0 8-2 12 0 4-2 9-4 13-1 3-3 7-6 10-2 3-5 5-7 7-2 1-2 2-3 2-1 1-2 1-2 1 1 0 3 0 5 1l6 3c4 3 7 6 11 11 2 3 5 7 7 12 2 4 3 9 4 14v13c1 23-13 45-35 54-7 4-15 5-24 5h-91v-215.8h81.9c7.1-.2 16.1.8 22.1 4.8zM51 1329.1h71.9c6 1 11-1 16-3s9-5 13-9 6-8 8-13c2-4 4-10 4-15 0-7-1-12-3-18-1-4-4-9-7-13-5-3-9-6-13-7-6-2-12-3-18-3H51v81zm0-100h63c5 0 10-1 16-3 4-2 9-5 12-9 4-3 7-7 9-12 5-9 5-20 0-30-2-5-5-9-9-13-3-3-8-6-12-8-6-2-11-3-16-3H51v78zm450.6-94.9c6-6 16-6 22 0s6 16 0 22-16 6-22 1c-2-3-3-4-4-6-2-5 0-12 4-17zm20 213.8h-19v-157.9h19V1348zm66-154.8c0 3 1 5 1 7v14c3-5 7-8 11-12 4-3 9-6 14-9 5-2 10-3 14-4 5-1 10-2 15-2 8 0 15 2 23 5 7 4 13 8 17 14 6 7 9 14 12 22 2 10 3 20 3 29v90.9h-19v-90.9c0-16-3-29-9-38-6-8-16-13-29-13-7 0-14 1-20 3s-12 5-17 8c-4 3-8 7-11 12-3 4-4 9-4 14v104.9h-19v-157.9h17c0 1 0 2 1 3zm167.9 17.9c7-7 16-13 26-18 18-7 39-8 58-1 16 6 31 17 40 32 5 8 8 16 11 25 0 1 1 3 1 5s-1 5-2 7-2 4-4 6c-1 2-3 4-5 4-2 1-5 2-7 2H750.6c0 8 3 16 6 23 10 22 32 36 56 36 3 0 6-1 8-2 4 0 6-1 10-2 3-1 6-2 9-4 2-1 5-3 8-4 1-1 3-2 5-2 1-1 3-1 5-1 1 0 2 0 4 1 1 0 2 1 3 1 1 1 3 2 3 2 2 2 3 2 4 3-8 8-17 15-27 19-5 2-10 4-16 6-5 1-10 2-16 2-7 0-14-2-21-4-7-1-14-4-20-8-5-3-11-7-16-12s-9-11-13-17c-3-6-6-13-8-19-2-7-3-15-3-22 0-11 2-21 6-32 4.9-9 10.9-18 17.9-26zm-2 45c2-2 4-2 6-2h112.9c-2-8-5-14-9-20s-9-11-14-15-11-7-17-9-13-4-20-4-15 2-23 5c-6 2-13 6-18 11-11 10-18 23-20 39 1.1-3 2.1-4 2.1-5zm162.8 65h5c3 1 5 2 7 4 3 2 6 3 10 5 3 0 7 1 11 1s8-1 12-1c4-2 8-4 11-6 4-3 6-5 8-9s4-8 4-13c0-2-1-5-2-8s-2-5-4-7c-4-3-7-5-10-7-5-2-10-5-16-6l-2-2c-6-1-11-3-16-5s-10-5-14-9c-4-3-7-7-9-12-3-5-5-12-5-18s2-12 5-17c2-5 6-9 10-12s9-6 14-8c5-1 10-2 16-2h1c5 0 10 1 15 2 4 2 7 5 11 7s6 4 9 7c3 2 5 4 6 6l-2 2c-2 2-4 3-6 4-1 1-3 2-5 2s-3-1-4-1l-4-2c-1-1-3-1-4-2s-3-2-4-3c-2-1-5-2-8-2h-5c-4 0-8 0-12 2-2 1-5 2-8 5-1 1-3 3-4 6-1 2-1 4-1 6 0 3 0 7 2 10s4 5 7 7c3 3 6 4 10 5 4 2 7 3 11 4l2 1c5 2 11 4 16 7 6 2 10 5 15 9 4 4 8 9 11 13 2 6 3 12 3 18 0 7-1 13-4 19s-7 11-12 15c-5 5-11 8-17 11-7 2-14 4-21 4-10 0-19-3-27-7s-15-10-20-18c3-2 6-3 8-4s4-1 6-1zm112 0h4c3 1 5 2 7 4l10 5c4 0 7 1 11 1s9-1 13-1c3-2 7-4 11-6 3-3 6-5 8-9s3-8 3-13c0-2 0-5-1-8s-3-5-6-7c-2-3-5-5-8-7-6-2-11-4-16-6l-3-2c-5-1-10-3-16-5-4-2-9-5-13-9-4-3-8-7-10-12-3-5-4-12-4-18s1-12 4-17c2-5 6-9 10-12s9-6 15-8c5-1 10-2 15-2h2c5 0 9 1 14 2 4 2 8 5 12 7 3 2 6 4 9 7l6 6-3 2c-1 2-3 3-5 4-3 2-7 2-10 1-1-1-2-1-3-2-2-1-3-1-4-2-2-1-3-2-5-3s-4-2-7-2h-6c-4 0-8 0-11 2-3 1-6 2-8 5-2 1-4 3-5 6 0 2-1 4-1 6 0 3 1 7 3 10 1 3 4 5 7 7 2 3 6 4 9 5 4 2 8 3 12 4l1 1c6 2 11 4 17 7 5 2 10 5 15 9 4 4 7 9 10 13 2 6 3 12 3 18 0 7-1 13-4 19-2 6-7 11-11 15-5 5-11 8-17 11-7 2-15 4-22 4-9 0-18-3-26-7-9-4-15-10-20-18 3-2 5-3 7-4s4-1 7-1zm744.4 26.9h-20v-215.8h20V1348zm49-213.8c5-6 16-6 22 0 5 6 5 16 0 22-4 3-7 5-11 5s-8-2-11-5c-6-6-6-16 0-22zm20 213.8h-19v-157.9h19V1348zm48-119.9c3-6 7-12 12-17s10-9 16-13c6-3 13-6 19-8 8-1 15-3 22-3 6 0 11 1 17 2 9 2 19 7 27 12 4 3 8 5 11 9l-1 1c-2 2-4 4-6 5-3 1-6 2-8 2s-3-1-5-1c-1 0-3-1-4-2-5-2-9-4-15-6-5-1-10-2-16-3-16 0-32 7-43 19-25 25-25 64 0 87.9 11 12 27 19 43 19 6 0 11-2 16-3 6-1 10-3 15-6 1-1 3-2 5-2 1 0 3-1 5-1s4 1 7 2c2 1 4 3 6 5l1 1c-3 4-7 6-10 8-4 3-8 6-13 8s-10 3-15 5c-6 1-11 2-17 2-7 0-14-2-22-3-6-2-13-5-19-8-6-4-11-8-16-13s-9-10-12-17c-5-6-7-13-9-19-4-15-4-29 0-43 2-6.9 4-13.9 9-19.9zm152.8 42c7-5 15-8 22-10 11-2 22-4 32-4 4 0 7 0 11 1 5 0 9 1 12 1 4 0 6 1 9 1 3 1 4 1 5 1-1-9-2-18-5-27-2-6-5-11-10-16-2-4-7-6-12-8-9-3-20-3-29 0-5 2-10 4-14 6-1 1-3 2-5 3s-5 2-7 2c-4 0-9-2-12-5l-3-2c1-2 2-4 4-5l5-5c2-1 3-3 5-3 6-4 12-7 19-9 8-2 15-4 23-4 7 0 15 2 22 4 11 4 21 12 26 23 4 5 6 11 7 17 2 6 4 12 4 19 1 6 1 13 1 19v78.9h-16c0-1-1-2-2-3-1-2-1-4-1-7v-8c-4 4-9 7-14 10s-9 5-14 6c-5 2-10 3-15 3-4 1-8 2-13 2h-2c-6 0-13-2-19-4-5-2-11-5-16-9-4-4-8-8-11-14s-4-12-4-18c0-8 1-15 4-21 3.1-5.9 8-10.9 13-14.9zm5 45c1 4 3 6 6 8 2 3 6 5 10 6s8 2 12 2c5 0 9 0 13-1 6-1 11-2 15-4 5-2 11-3 15-6 5-2 10-5 15-7v-35h-4c-3 0-6-1-10-1-3 0-7-1-11-1h-11c-7 0-15 0-22 2-5 0-11 2-16 4-4 2-8 5-11 9s-4 9-4 15c0 3 1 7 3 9zm144.9-125.9h10v-35c0-4 1-8 1-12 2-2 2-4 4-7h14v54h47v19h-47v102.9c0 3 1 6 1 8 1 2 2 5 4 7 1 2 3 4 6 5 2 1 5 2 8 2l4-1c4 0 8-1 11-2 3 0 6 2 8 3 3 2 5 4 7 7v1c-2 1-5 2-7 4-2 1-5 2-8 2-2 2-5 2-9 3-2 0-4 1-6 1-6 0-11-2-16-3-5-2-9-5-12-8-3-4-6-8-7-12-2-6-3-11-3-17v-102.9h-29v-12c.1-4 6-7 19-7zm108-55c6-6 15-6 22 0 6 6 6 16 0 22-3 3-7 5-11 5s-9-2-11-5c-6-6-6-16 0-22zm19.9 213.8h-19v-157.9h19V1348zm248.9-154.8c0 3 1 5 1 7v14c3-5 7-8 12-12 4-3 8-6 13-9 5-2 10-3 15-4 4-1 9-2 14-2 8 0 16 2 23 5 7 4 13 8 18 14 5 7 8 14 11 22 3 10 4 20 3 29v90.9h-19v-90.9c0-16-2-29-9-38-6-8-15-13-28-13-7 0-14 1-21 3-6 2-12 5-16 8-5 3-9 7-12 12-3 4-4 9-4 14v104.9h-19v-157.9h17c1 1 1 2 1 3zm148.9 127.9h5c3 1 5 2 7 4 3 2 6 3 10 5 4 0 7 1 11 1s8-1 12-1c4-2 8-4 11-6 4-3 7-5 9-9s3-8 3-13c0-2-1-5-1-8-2-3-3-5-6-7-2-3-5-5-9-7-5-2-10-5-15-6l-3-2c-6-1-11-3-16-5s-9-5-14-9c-4-3-7-7-10-12s-4-12-3-18c0-6 1-12 4-17 2-5 5-9 10-12 4-3 9-6 15-8 4-1 10-2 15-2h1c5 0 10 1 14 2 5 2 9 5 13 7 2 2 6 4 9 7l6 6-3 2c-2 2-3 3-6 4-2 2-6 2-9 1-1-1-3-1-4-2s-2-1-4-2c-1-1-2-2-4-3s-5-2-7-2h-6c-4 0-8 0-11 2-4 1-6 2-9 5-2 1-3 3-4 6 0 2-1 4-1 6 0 3 1 7 3 10 1 3 4 5 7 7 2 3 6 4 9 5 4 2 8 3 11 4l2 1c6 2 11 4 17 7 5 2 10 5 14 9 5 4 8 9 10 13 3 6 4 12 4 18 0 7-1 13-4 19s-7 11-11 15c-5 5-11 8-18 11-6 2-14 4-21 4-9 0-18-3-26-7-9-4-16-10-21-18 3-2 6-3 8-4s4-1 6-1zm-159.9-341.8V303.8h175.9v675.5h-175.9zM1507.9 404.7h63c38 0 69 31 69 69v64c0 39-31 70-69 70h-63c-38 0-69-31-69-70v-64c.1-38 31.1-69 69-69zM69.9 0h62c39 0 69 31 69 69v64c0 39-30 70-69 70h-62c-38 0-69-31-69-70V69C1 31 32 0 69.9 0zm2543.2 0h62c39 0 69 31 69 69v64c0 39-30 70-69 70h-62c-38 0-69-31-69-70V69c.1-38 31.1-69 69-69z"/></symbol><symbol viewBox="0 0 10 10" id="menu-item-divider"><path d="M0 0h2v2H0zm4 0h2v2H4zm4 0h2v2H8zM0 4h2v2H0zm4 0h2v2H4zm4 0h2v2H8zM0 8h2v2H0zm4 0h2v2H4zm4 0h2v2H8z"/></symbol></svg>