<?xml version="1.0" encoding="utf-8"?>
<!-- Generator: Adobe Illustrator 20.1.0, SVG Export Plug-In . SVG Version: 6.00 Build 0)  -->
<svg version="1.1" id="Слой_1" xmlns="http://www.w3.org/2000/svg" xmlns:xlink="http://www.w3.org/1999/xlink" x="0px" y="0px"
	 viewBox="0 0 2806 1404" enable-background="new 0 0 2806 1404" xml:space="preserve">
<g id="Layer_x0020_1">
	<path fill="#0F0F10" d="M2494.2,1327.1c-7,7-16,13-25,17c-17,8-36,9-54,3c-6-1-13-4-19-8c-6-3-11-7-16-12s-9-11-13-17s-6-13-8-19
		c-4-15-4-29,0-43c2-7,4-14,8-20s8-12,13-17s10-9,16-13c6-3,13-6,19-8c18-5,37-3,54,3c19,9,35,24,43,44c8,21,8,43,0,64
		C2508.2,1310.1,2502.2,1319.1,2494.2,1327.1L2494.2,1327.1z M2494.2,1245.1c-3-8-8-15-13-20c-5-6-12-10-20-14c-16-6-33-6-48,0
		c-7,4-14,8-20,14c-24,25-24,64,0,87.9c12,12,28,19,44,19c8,0,17-2,24-6c8-3,15-7,20-13C2499.2,1295.1,2504.2,1268.1,2494.2,1245.1
		L2494.2,1245.1z M2292.4,902.4c-32,27-70,49-108.9,63c-41,15-84.9,23-128.9,23c-46,0-90.9-8-132.9-25c-40-16-76.9-40-107.9-70.9
		c-18-17-35-37-48-59c-12-19-21-37-30-57c9-5,17-9,26-14c8-5,17-9,25-13c9-4,17-7,27-10c9-2,19-3,29-3c15,0,29,3,43,7s28,10,41,17
		c19,13,38,24,58,35s43,16,70,16c19-1,38-3,56-9c19-5,37-14,54-24c15-11,29-26,40-42c11-17,16-36,16-56c0-21-5-37-15-51
		c-11-14-24-26-39-34c-18-10-37-19-56-25c-20-7-42-15-63-24c-33-13-65-26-96.9-41c-31-13-59-31-84.9-52c-26-22-46-48-61-77.9
		c-16-30-24-67-24-111.9c0-42,9-78.9,26-110.9c16-32,39-61,67-82.9c29-23,61-40,95.9-52c36-11,72.9-17,109.9-17c28,0,55,4,80.9,14
		c26,9,51,21,74.9,36c23,15,45,31,65,50c18,17,35,34,51,54c-34,27-34,27-34,27c-14,12-30,22-47,28s-33,10-51,10c-4,0-8,0-12,0
		c-4-1-9-2-13-2c-11-4-22-7-32-12c-9-4-19-8-28-12s-18-8-27-11c-9-2-18-4-28-4c-15,0-31,2-46,6c-14,4-27,9-39,17c-11,7-20,16-27,27
		c-7,10-11,23-10,36c0,16,3,30,10,41c6,11,17,20,31,29c17,10,36,18,54,24c22,8,49,17,78.9,28c31,11,31,11,31,11c34,12,67,28,97.9,46
		c27,17,52,38,72.9,62c20,23,36,49,47,77.9c11,31,16,64,16,96.9c1,43-9,85.9-28,124.9C2350.3,842.4,2324.3,875.4,2292.4,902.4
		L2292.4,902.4z M1696.8,1327.1c-7,7-15,13-25,17c-10,5-20,7-31,7c-3,0-7-1-11-2c-4,0-8-1-12-3c-5-2-9-5-13-8c-6-4-10-8-14-14
		c0,79.9,0,79.9,0,79.9c-19,0-19,0-19,0c0-213.8,0-213.8,0-213.8c17,0,17,0,17,0c1,1,2,2,2,3s0,3,0,4c0,12,0,12,0,12c3-4,6-7,11-10
		c4-3,9-5,14-7c5-1,9-3,14-3c4-1,8-2,11-2c11,0,21,2,31,6c10,5,18,11,25,18c7,8,13,17,16,26c8,21,8,43,0,64
		C1709.8,1310.1,1703.8,1319.1,1696.8,1327.1L1696.8,1327.1z M1695.8,1245.1c-3-8-7-15-12-20c-6-6-12-10-19-14c-7-2-16-5-24-5
		c-9,0-18,3-26,6c-9,4-17,10-24,16c0,73.9,0,73.9,0,73.9c3,4,6,9,11,13c3,3,7,6,12,9c4,2,9,4,14,6c4,1,8,2,13,2c8,0,17-2,24-6
		c7-3,13-7,19-13c5-5,9-12,12-20C1700.8,1278.1,1700.8,1261.1,1695.8,1245.1L1695.8,1245.1z M1516.9,1327.1c-7,7-15,13-25,17
		c-10,5-20,7-31,7c-3,0-7-1-11-2c-4,0-8-1-12-3c-5-2-9-5-13-8c-5-4-10-8-14-14c0,79.9,0,79.9,0,79.9c-19,0-19,0-19,0
		c0-213.8,0-213.8,0-213.8c17,0,17,0,17,0c1,1,2,2,2,3s0,3,0,4c0,12,0,12,0,12c3-4,7-7,11-10s9-5,14-7c5-1,10-3,14-3c4-1,8-2,11-2
		c11,0,21,2,31,6c10,5,18,11,25,18c7,8,13,17,16,26c8,21,8,43,0,64C1529.9,1310.1,1523.9,1319.1,1516.9,1327.1L1516.9,1327.1z
		 M1515.9,1245.1c-3-8-7-15-12-20c-6-6-12-10-19-14c-7-2-16-5-24-5c-9,0-18,3-26,6c-9,4-17,10-24,16c0,73.9,0,73.9,0,73.9
		c3,4,7,9,11,13c3,3,7,6,12,9c4,2,9,4,14,6c4,1,8,2,13,2c8,0,17-2,24-6c7-3,13-7,19-13c5-5,9-12,12-20
		C1520.9,1278.1,1520.9,1261.1,1515.9,1245.1L1515.9,1245.1z M1333,1345c0-2,0-4,0-7c0-8,0-8,0-8c-4,4-9,7-15,10c-4,3-9,5-14,6
		c-4,2-9,3-14,3c-4,1-9,2-13,2c-2,0-2,0-2,0c-7,0-13-2-19-4s-12-5-16-9c-5-4-9-8-11-14c-3-6-4-12-4-18c0-8,1-15,4-21s7-11,13-15
		c7-5,14-8,22-10c11-2,21-4,32-4c4,0,7,0,11,1c4,0,8,1,12,1c3,0,6,0,9,1s4,1,5,1c-1-9-2-18-5-27c-2-6-6-11-10-16c-3-4-7-6-12-8
		c-10-3-20-3-30,0c-5,2-9,4-13,6c-2,1-4,2-5,3c-3,1-5,2-7,2c-5,0-9-2-12-5c-3-2-3-2-3-2c1-2,2-4,4-5c1-2,3-3,4-5c2-1,4-3,6-3
		c6-4,12-7,19-9c8-2,15-4,23-4c7,0,15,2,22,4c11,4,21,12,26,23c4,5,6,11,7,17c2,6,3,12,4,19c1,6,1,13,1,19c0,78.9,0,78.9,0,78.9
		c-17,0-17,0-17,0C1335,1347,1334,1346,1333,1345L1333,1345z M1333,1278.1c-1,0-2,0-5,0c-2,0-6-1-9-1s-7-1-11-1s-8,0-12,0
		c-7,0-14,0-21,2c-5,0-11,2-16,4s-8,5-11,9s-4,9-4,15c0,3,0,7,2,9c2,4,4,6,7,8c2,3,6,5,9,6c4,1,9,2,13,2s9,0,13-1c5-1,10-2,15-4
		s10-3,15-6c5-2,10-5,15-7C1333,1278.1,1333,1278.1,1333,1278.1L1333,1278.1z M1210.1,739.5c-20,36-46,69-74.9,97.9
		s-62,55-96.9,74.9c-36,22-74.9,38-115.9,49c-42,12-84.9,18-127.9,18c-377.7,0-377.7,0-377.7,0c0-968.3,0-968.3,0-968.3
		c377.7,0,377.7,0,377.7,0c85.9,0,169.9,23,243.8,66c35,22,68,47,96.9,75.9c59,60,101.9,133.9,123.9,213.8c24,84.9,24,172.9,0,257.8
		C1248.1,664.5,1231.1,703.5,1210.1,739.5L1210.1,739.5z M1076.2,375.7c-31-72.9-89.9-130.9-162.9-162.9c-37-16-77.9-24-118.9-24
		c-201.9,0-201.9,0-201.9,0c0,612.6,0,612.6,0,612.6c201.9,0,201.9,0,201.9,0c41,0,81.9-8,118.9-24c36-16,69-38,96.9-66
		c28-28,50-61,66-96.9C1109.2,537.6,1109.2,452.7,1076.2,375.7L1076.2,375.7z M417.7,1189.2c6,0,11,1,15,2c4,2,8,5,12,7c3,2,6,4,9,7
		c2,2,4,4,6,6c-3,2-3,2-3,2c-2,2-3,3-5,4s-4,2-6,2c-1,0-2-1-4-1c-1-1-2-1-3-2c-2-1-3-1-4-2c-2-1-3-2-4-3c-2-1-5-2-8-2c-2,0-4,0-5,0
		c-4,0-9,0-12,2c-3,1-6,2-8,5c-2,1-4,3-4,6c-2,2-2,4-2,6c0,3,1,7,2,10c2,3,5,5,8,7c3,3,6,4,9,5c4,2,8,3,11,4c2,1,2,1,2,1
		c6,2,11,4,17,7c5,2,10,5,14,9s8,9,11,13c2,6,4,12,4,18c0,7-2,13-4,19c-3,6-7,11-12,15c-6,5-11,8-17,11c-7,2-15,4-22,4
		c-9,0-18-3-26-7s-15-10-21-18c4-2,7-3,8-4c2-1,4-1,6-1s4,0,6,0c2,1,4,2,6,4c3,2,7,3,10,5c3,0,7,1,11,1s8-1,12-1c4-2,8-4,12-6
		c3-3,6-5,8-9s3-8,3-13c0-2,0-5-2-8c0-3-2-5-4-7c-3-3-7-5-10-7c-5-2-10-5-15-6c-3-2-3-2-3-2c-5-1-11-3-15-5c-5-2-10-5-14-9
		c-4-3-8-7-10-12c-3-5-5-12-4-18c0-6,2-12,4-17s6-9,11-12c4-3,8-6,13-8c6-1,11-2,16-2C417.7,1189.2,417.7,1189.2,417.7,1189.2
		L417.7,1189.2z M327.8,1345c-1-2-1-4-1-7c0-10,0-10,0-10c-3,4-7,8-12,11c-4,2-9,5-14,7c-4,1-9,3-14,3c-5,1-10,2-14,2
		c-8,0-16-2-23-5s-13-8-18-14s-9-14-11-22c-2-10-4-19-4-29c0-90.9,0-90.9,0-90.9c19,0,19,0,19,0c0,90.9,0,90.9,0,90.9
		c0,16,4,29,10,37c6,9,16,14,29,14c6,0,13-2,20-3c6-2,11-5,17-8c4-3,8-7,11-12c2-4,4-9,4-14c0-104.9,0-104.9,0-104.9c19,0,19,0,19,0
		c0,157.9,0,157.9,0,157.9c-17,0-17,0-17,0C328.8,1347,327.8,1346,327.8,1345L327.8,1345z M11,303.8c175.9,0,175.9,0,175.9,0
		c0,675.5,0,675.5,0,675.5c-175.9,0-175.9,0-175.9,0V303.8z M135.9,1137.2c15,5,26,16,32,30c3,7,5,15,5,23c0,4,0,8-2,12
		c0,4-2,9-4,13c-1,3-3,7-6,10c-2,3-5,5-7,7c-2,1-2,2-3,2c-1,1-2,1-2,1l0,0c1,0,3,0,5,1s4,2,6,3c4,3,7,6,11,11c2,3,5,7,7,12
		c2,4,3,9,4,14c0,4,0,8,0,13c1,23-13,45-35,54c-7,4-15,5-24,5c-65,0-65,0-65,0c-26,0-26,0-26,0c0-215.8,0-215.8,0-215.8
		c81.9,0,81.9,0,81.9,0C120.9,1132.2,129.9,1133.2,135.9,1137.2L135.9,1137.2z M51,1329.1c71.9,0,71.9,0,71.9,0c6,1,11-1,16-3
		s9-5,13-9s6-8,8-13c2-4,4-10,4-15c0-7-1-12-3-18c-1-4-4-9-7-13c-5-3-9-6-13-7c-6-2-12-3-18-3c-71.9,0-71.9,0-71.9,0
		C51,1329.1,51,1329.1,51,1329.1L51,1329.1z M51,1229.1c63,0,63,0,63,0c5,0,10-1,16-3c4-2,9-5,12-9c4-3,7-7,9-12c5-9,5-20,0-30
		c-2-5-5-9-9-13c-3-3-8-6-12-8c-6-2-11-3-16-3c-63,0-63,0-63,0C51,1229.1,51,1229.1,51,1229.1L51,1229.1z M501.6,1134.2
		c6-6,16-6,22,0s6,16,0,22s-16,6-22,1c-2-3-3-4-4-6C495.6,1146.2,497.6,1139.2,501.6,1134.2L501.6,1134.2z M521.6,1348
		c-19,0-19,0-19,0c0-157.9,0-157.9,0-157.9c19,0,19,0,19,0V1348z M587.6,1193.2c0,3,1,5,1,7c0,14,0,14,0,14c3-5,7-8,11-12
		c4-3,9-6,14-9c5-2,10-3,14-4c5-1,10-2,15-2c8,0,15,2,23,5c7,4,13,8,17,14c6,7,9,14,12,22c2,10,3,20,3,29c0,90.9,0,90.9,0,90.9
		c-19,0-19,0-19,0c0-90.9,0-90.9,0-90.9c0-16-3-29-9-38c-6-8-16-13-29-13c-7,0-14,1-20,3s-12,5-17,8c-4,3-8,7-11,12c-3,4-4,9-4,14
		c0,104.9,0,104.9,0,104.9c-19,0-19,0-19,0c0-157.9,0-157.9,0-157.9c17,0,17,0,17,0C586.6,1191.2,586.6,1192.2,587.6,1193.2
		L587.6,1193.2z M755.5,1211.1c7-7,16-13,26-18c18-7,39-8,58-1c16,6,31,17,40,32c5,8,8,16,11,25c0,1,1,3,1,5s-1,5-2,7s-2,4-4,6
		c-1,2-3,4-5,4c-2,1-5,2-7,2c-122.9,0-122.9,0-122.9,0c0,8,3,16,6,23c10,22,32,36,56,36c3,0,6-1,8-2c4,0,6-1,10-2c3-1,6-2,9-4
		c2-1,5-3,8-4c1-1,3-2,5-2c1-1,3-1,5-1c1,0,2,0,4,1c1,0,2,1,3,1c1,1,3,2,3,2c2,2,3,2,4,3c-8,8-17,15-27,19c-5,2-10,4-16,6
		c-5,1-10,2-16,2c-7,0-14-2-21-4c-7-1-14-4-20-8c-5-3-11-7-16-12s-9-11-13-17c-3-6-6-13-8-19c-2-7-3-15-3-22c0-11,2-21,6-32
		C742.5,1228.1,748.5,1219.1,755.5,1211.1L755.5,1211.1z M753.5,1256.1c2-2,4-2,6-2c112.9,0,112.9,0,112.9,0c-2-8-5-14-9-20
		s-9-11-14-15s-11-7-17-9s-13-4-20-4s-15,2-23,5c-6,2-13,6-18,11c-11,10-18,23-20,39C752.5,1258.1,753.5,1257.1,753.5,1256.1
		L753.5,1256.1z M916.3,1321.1c1,0,3,0,5,0c3,1,5,2,7,4c3,2,6,3,10,5c3,0,7,1,11,1s8-1,12-1c4-2,8-4,11-6c4-3,6-5,8-9s4-8,4-13
		c0-2-1-5-2-8s-2-5-4-7c-4-3-7-5-10-7c-5-2-10-5-16-6c-2-2-2-2-2-2c-6-1-11-3-16-5s-10-5-14-9c-4-3-7-7-9-12c-3-5-5-12-5-18
		s2-12,5-17c2-5,6-9,10-12s9-6,14-8c5-1,10-2,16-2c1,0,1,0,1,0c5,0,10,1,15,2c4,2,7,5,11,7s6,4,9,7c3,2,5,4,6,6c-2,2-2,2-2,2
		c-2,2-4,3-6,4c-1,1-3,2-5,2s-3-1-4-1c-2-1-2-1-4-2c-1-1-3-1-4-2s-3-2-4-3c-2-1-5-2-8-2c-1,0-3,0-5,0c-4,0-8,0-12,2c-2,1-5,2-8,5
		c-1,1-3,3-4,6c-1,2-1,4-1,6c0,3,0,7,2,10s4,5,7,7c3,3,6,4,10,5c4,2,7,3,11,4c2,1,2,1,2,1c5,2,11,4,16,7c6,2,10,5,15,9
		c4,4,8,9,11,13c2,6,3,12,3,18c0,7-1,13-4,19s-7,11-12,15c-5,5-11,8-17,11c-7,2-14,4-21,4c-10,0-19-3-27-7s-15-10-20-18c3-2,6-3,8-4
		S914.3,1321.1,916.3,1321.1L916.3,1321.1z M1028.3,1321.1c1,0,3,0,4,0c3,1,5,2,7,4c4,2,6,3,10,5c4,0,7,1,11,1s9-1,13-1
		c3-2,7-4,11-6c3-3,6-5,8-9s3-8,3-13c0-2,0-5-1-8s-3-5-6-7c-2-3-5-5-8-7c-6-2-11-4-16-6c-3-2-3-2-3-2c-5-1-10-3-16-5c-4-2-9-5-13-9
		c-4-3-8-7-10-12c-3-5-4-12-4-18s1-12,4-17c2-5,6-9,10-12s9-6,15-8c5-1,10-2,15-2c2,0,2,0,2,0c5,0,9,1,14,2c4,2,8,5,12,7
		c3,2,6,4,9,7c2,2,4,4,6,6c-3,2-3,2-3,2c-1,2-3,3-5,4c-3,2-7,2-10,1c-1-1-2-1-3-2c-2-1-3-1-4-2c-2-1-3-2-5-3s-4-2-7-2c-1,0-4,0-6,0
		c-4,0-8,0-11,2c-3,1-6,2-8,5c-2,1-4,3-5,6c0,2-1,4-1,6c0,3,1,7,3,10c1,3,4,5,7,7c2,3,6,4,9,5c4,2,8,3,12,4c1,1,1,1,1,1
		c6,2,11,4,17,7c5,2,10,5,15,9c4,4,7,9,10,13c2,6,3,12,3,18c0,7-1,13-4,19c-2,6-7,11-11,15c-5,5-11,8-17,11c-7,2-15,4-22,4
		c-9,0-18-3-26-7c-9-4-15-10-20-18c3-2,5-3,7-4S1025.3,1321.1,1028.3,1321.1L1028.3,1321.1z M1772.7,1348c-20,0-20,0-20,0
		c0-215.8,0-215.8,0-215.8c20,0,20,0,20,0C1772.7,1348,1772.7,1348,1772.7,1348L1772.7,1348z M1821.7,1134.2c5-6,16-6,22,0
		c5,6,5,16,0,22c-4,3-7,5-11,5s-8-2-11-5C1815.7,1150.2,1815.7,1140.2,1821.7,1134.2L1821.7,1134.2z M1841.7,1348c-19,0-19,0-19,0
		c0-157.9,0-157.9,0-157.9c19,0,19,0,19,0C1841.7,1348,1841.7,1348,1841.7,1348L1841.7,1348z M1889.7,1228.1c3-6,7-12,12-17
		s10-9,16-13c6-3,13-6,19-8c8-1,15-3,22-3c6,0,11,1,17,2c9,2,19,7,27,12c4,3,8,5,11,9c-1,1-1,1-1,1c-2,2-4,4-6,5c-3,1-6,2-8,2
		s-3-1-5-1c-1,0-3-1-4-2c-5-2-9-4-15-6c-5-1-10-2-16-3c-16,0-32,7-43,19c-25,25-25,64,0,87.9c11,12,27,19,43,19c6,0,11-2,16-3
		c6-1,10-3,15-6c1-1,3-2,5-2c1,0,3-1,5-1s4,1,7,2c2,1,4,3,6,5c1,1,1,1,1,1c-3,4-7,6-10,8c-4,3-8,6-13,8s-10,3-15,5c-6,1-11,2-17,2
		c-7,0-14-2-22-3c-6-2-13-5-19-8c-6-4-11-8-16-13s-9-10-12-17c-5-6-7-13-9-19c-4-15-4-29,0-43
		C1882.7,1241.1,1884.7,1234.1,1889.7,1228.1L1889.7,1228.1z M2042.5,1270.1c7-5,15-8,22-10c11-2,22-4,32-4c4,0,7,0,11,1
		c5,0,9,1,12,1c4,0,6,1,9,1c3,1,4,1,5,1c-1-9-2-18-5-27c-2-6-5-11-10-16c-2-4-7-6-12-8c-9-3-20-3-29,0c-5,2-10,4-14,6c-1,1-3,2-5,3
		s-5,2-7,2c-4,0-9-2-12-5c-3-2-3-2-3-2c1-2,2-4,4-5c2-2,3-3,5-5c2-1,3-3,5-3c6-4,12-7,19-9c8-2,15-4,23-4c7,0,15,2,22,4
		c11,4,21,12,26,23c4,5,6,11,7,17c2,6,4,12,4,19c1,6,1,13,1,19c0,78.9,0,78.9,0,78.9c-16,0-16,0-16,0c0-1-1-2-2-3c-1-2-1-4-1-7
		c0-8,0-8,0-8c-4,4-9,7-14,10s-9,5-14,6c-5,2-10,3-15,3c-4,1-8,2-13,2c-2,0-2,0-2,0c-6,0-13-2-19-4c-5-2-11-5-16-9c-4-4-8-8-11-14
		s-4-12-4-18c0-8,1-15,4-21C2032.6,1279.1,2037.5,1274.1,2042.5,1270.1L2042.5,1270.1z M2047.5,1315.1c1,4,3,6,6,8c2,3,6,5,10,6
		s8,2,12,2c5,0,9,0,13-1c6-1,11-2,15-4c5-2,11-3,15-6c5-2,10-5,15-7c0-35,0-35,0-35c-1,0-2,0-4,0c-3,0-6-1-10-1c-3,0-7-1-11-1
		s-8,0-11,0c-7,0-15,0-22,2c-5,0-11,2-16,4c-4,2-8,5-11,9s-4,9-4,15C2044.5,1309.1,2045.5,1313.1,2047.5,1315.1L2047.5,1315.1z
		 M2192.4,1189.2c10,0,10,0,10,0c0-35,0-35,0-35c0-4,1-8,1-12c2-2,2-4,4-7c14,0,14,0,14,0c0,54,0,54,0,54c47,0,47,0,47,0
		c0,19,0,19,0,19c-47,0-47,0-47,0c0,102.9,0,102.9,0,102.9c0,3,1,6,1,8c1,2,2,5,4,7c1,2,3,4,6,5c2,1,5,2,8,2c4-1,4-1,4-1
		c4,0,8-1,11-2c3,0,6,2,8,3c3,2,5,4,7,7c0,1,0,1,0,1c-2,1-5,2-7,4c-2,1-5,2-8,2c-2,2-5,2-9,3c-2,0-4,1-6,1c-6,0-11-2-16-3
		c-5-2-9-5-12-8c-3-4-6-8-7-12c-2-6-3-11-3-17c0-102.9,0-102.9,0-102.9c-29,0-29,0-29,0c0-12,0-12,0-12
		C2173.5,1192.2,2179.4,1189.2,2192.4,1189.2L2192.4,1189.2z M2300.4,1134.2c6-6,15-6,22,0c6,6,6,16,0,22c-3,3-7,5-11,5s-9-2-11-5
		C2294.4,1150.2,2294.4,1140.2,2300.4,1134.2L2300.4,1134.2z M2320.3,1348c-19,0-19,0-19,0c0-157.9,0-157.9,0-157.9c19,0,19,0,19,0
		V1348z M2569.2,1193.2c0,3,1,5,1,7c0,14,0,14,0,14c3-5,7-8,12-12c4-3,8-6,13-9c5-2,10-3,15-4c4-1,9-2,14-2c8,0,16,2,23,5
		c7,4,13,8,18,14c5,7,8,14,11,22c3,10,4,20,3,29c0,90.9,0,90.9,0,90.9c-19,0-19,0-19,0c0-90.9,0-90.9,0-90.9c0-16-2-29-9-38
		c-6-8-15-13-28-13c-7,0-14,1-21,3c-6,2-12,5-16,8c-5,3-9,7-12,12c-3,4-4,9-4,14c0,104.9,0,104.9,0,104.9c-19,0-19,0-19,0
		c0-157.9,0-157.9,0-157.9c17,0,17,0,17,0C2569.2,1191.2,2569.2,1192.2,2569.2,1193.2L2569.2,1193.2z M2718.1,1321.1c2,0,4,0,5,0
		c3,1,5,2,7,4c3,2,6,3,10,5c4,0,7,1,11,1s8-1,12-1c4-2,8-4,11-6c4-3,7-5,9-9s3-8,3-13c0-2-1-5-1-8c-2-3-3-5-6-7c-2-3-5-5-9-7
		c-5-2-10-5-15-6c-3-2-3-2-3-2c-6-1-11-3-16-5s-9-5-14-9c-4-3-7-7-10-12s-4-12-3-18c0-6,1-12,4-17c2-5,5-9,10-12c4-3,9-6,15-8
		c4-1,10-2,15-2c1,0,1,0,1,0c5,0,10,1,14,2c5,2,9,5,13,7c2,2,6,4,9,7c2,2,4,4,6,6c-3,2-3,2-3,2c-2,2-3,3-6,4c-2,2-6,2-9,1
		c-1-1-3-1-4-2s-2-1-4-2c-1-1-2-2-4-3s-5-2-7-2s-4,0-6,0c-4,0-8,0-11,2c-4,1-6,2-9,5c-2,1-3,3-4,6c0,2-1,4-1,6c0,3,1,7,3,10
		c1,3,4,5,7,7c2,3,6,4,9,5c4,2,8,3,11,4c2,1,2,1,2,1c6,2,11,4,17,7c5,2,10,5,14,9c5,4,8,9,10,13c3,6,4,12,4,18c0,7-1,13-4,19
		s-7,11-11,15c-5,5-11,8-18,11c-6,2-14,4-21,4c-9,0-18-3-26-7c-9-4-16-10-21-18c3-2,6-3,8-4S2716.1,1321.1,2718.1,1321.1
		L2718.1,1321.1z M2558.2,979.3c0-675.5,0-675.5,0-675.5c175.9,0,175.9,0,175.9,0c0,675.5,0,675.5,0,675.5H2558.2z"/>
	<path fill="#F86B55" d="M1507.9,404.7c63,0,63,0,63,0c38,0,69,31,69,69c0,64,0,64,0,64c0,39-31,70-69,70c-63,0-63,0-63,0
		c-38,0-69-31-69-70c0-64,0-64,0-64C1439,435.7,1470,404.7,1507.9,404.7L1507.9,404.7z M69.9,0c62,0,62,0,62,0c39,0,69,31,69,69
		c0,64,0,64,0,64c0,39-30,70-69,70c-62,0-62,0-62,0c-38,0-69-31-69-70c0-64,0-64,0-64C1,31,32,0,69.9,0L69.9,0z M2613.1,0
		c62,0,62,0,62,0c39,0,69,31,69,69c0,64,0,64,0,64c0,39-30,70-69,70c-62,0-62,0-62,0c-38,0-69-31-69-70c0-64,0-64,0-64
		C2544.2,31,2575.2,0,2613.1,0L2613.1,0z"/>
</g>
</svg>
